<svg id="Layer_1" data-name="Layer 1" xmlns="http://www.w3.org/2000/svg" viewBox="0 0 93.9 92.66"><defs><style>.cls-1{fill:#10b5bd;}</style></defs><title>dogwood-icon-rgb</title><path class="cls-1" d="M63,70.1l-8.44-2.47c-0.11.5-.56,2.32-0.71,2.86a35.08,35.08,0,0,1-3.38,8.31l1.09,1.39a24.44,24.44,0,0,0,8.72,6.44,63.73,63.73,0,0,0,18.16,4.94,95.58,95.58,0,0,0,12.7.89c1.48-.23,3.23-0.79,2.65-6.35C91.94,69,90.34,65.06,87.2,58.94a28.15,28.15,0,0,0-4.38-6.47,29.31,29.31,0,0,0-13.07-7.73L48.37,39.88a1.07,1.07,0,0,1,.24-1.94l21.78-9.87a1.07,1.07,0,0,1,1.28,1.47L69.21,38c0.5,0.11,2.32.56,2.86,0.71a34.61,34.61,0,0,1,9,3.81l0.34-.27a24.44,24.44,0,0,0,6.44-8.72,63.73,63.73,0,0,0,4.94-18.16,95.6,95.6,0,0,0,.89-12.7C93.48,1.16,92.91-.58,87.36,0,70.2,1.8,66.3,3.4,60.17,6.54a28.15,28.15,0,0,0-6.47,4.38A29.31,29.31,0,0,0,46,24L41.12,45.37a1.07,1.07,0,0,1-1.94-.24L29.3,23.35a1.07,1.07,0,0,1,1.47-1.28l8.44,2.47c0.11-.5.56-2.32,0.71-2.86a35,35,0,0,1,3.44-8.41L42.44,12.1a24.44,24.44,0,0,0-8.72-6.44A63.74,63.74,0,0,0,15.56.7,95.57,95.57,0,0,0,2.86-.2C1.38,0-.37.6,0.21,6.16c1.79,17.15,3.4,21,6.54,27.18a28.14,28.14,0,0,0,4.38,6.47A29.31,29.31,0,0,0,24.2,47.53L45.58,52.4a1.07,1.07,0,0,1-.24,1.94L23.56,64.21a1.07,1.07,0,0,1-1.28-1.47l2.47-8.44c-0.5-.11-2.32-0.56-2.86-0.71a34.5,34.5,0,0,1-9.22-3.94l-0.36.28a24.44,24.44,0,0,0-6.44,8.72,63.73,63.73,0,0,0-5,18.17A95.61,95.61,0,0,0,0,89.52c0.23,1.48.79,3.23,6.35,2.65,17.15-1.8,21.06-3.4,27.18-6.54A28.14,28.14,0,0,0,40,81.24a29.31,29.31,0,0,0,7.73-13.07L52.6,46.79a1.07,1.07,0,0,1,1.94.24l9.87,21.78A1.07,1.07,0,0,1,63,70.1Z" transform="translate(0 0.2)"/></svg>