<svg id="Layer_1" data-name="Layer 1" xmlns="http://www.w3.org/2000/svg" viewBox="0 0 677.78 118.94"><defs><style>.cls-1{fill:#fff;}</style></defs><title>dogwood-logo-reverse-white-rgb</title><path class="cls-1" d="M241.34,28.6c-21.19,0-34.45,11.7-34.45,32.63s13.26,32.63,34.45,32.63,34.45-11.7,34.45-32.5S262.53,28.6,241.34,28.6Zm0,46c-7.67,0-10.4-5.07-10.4-13.26s2.73-13.52,10.4-13.52,10.4,5.33,10.4,13.52S248.88,74.62,241.34,74.62ZM149,0H119.48V92.3h29.9C180.19,92.3,200.73,77,200.73,45,200.73,14.82,182,0,149,0Zm0.52,71H143.4V21.32h6.11c16.9,0,26.91,7.8,26.91,23.92C176.42,63.44,166.41,71,149.51,71ZM492.84,28.6c-21.19,0-34.45,11.7-34.45,32.63s13.26,32.63,34.45,32.63,34.45-11.7,34.45-32.5S514,28.6,492.84,28.6Zm0,46c-7.67,0-10.4-5.07-10.4-13.26s2.73-13.52,10.4-13.52,10.4,5.33,10.4,13.52S500.38,74.62,492.84,74.62Zm75.83-46c-21.19,0-34.45,11.7-34.45,32.63s13.26,32.63,34.45,32.63,34.45-11.7,34.45-32.5S589.86,28.6,568.67,28.6Zm0,46c-7.67,0-10.4-5.07-10.4-13.26s2.73-13.52,10.4-13.52,10.4,5.33,10.4,13.52S576.21,74.62,568.67,74.62ZM425.46,61L416.09,29.9H399.32L389.83,61,381.12,29.9H357.46L379.3,92.3h18.2l10.27-31.2,10.14,31.2H436l22-62.4H434.3ZM654.38,0V30.42a40.63,40.63,0,0,0-12.74-1.82C621.75,28.6,610,41.08,610,62.66c0,21.19,11.18,31.2,26.78,31.2a28.21,28.21,0,0,0,19.63-7.41l2,5.85h19.37V0h-23.4Zm0,60.84c0,9.36-5.59,13.78-11.83,13.78-5.72,0-9.1-3.9-9.1-12.48,0-10.92,4.55-14.3,11.05-14.3a18.87,18.87,0,0,1,9.88,2.86V60.84ZM331.08,36.16c-4.29-4.55-10.66-7.8-19.24-7.8-16,0-29,11.44-29,31.33,0,17.55,10.14,28.73,28,28.73,7.28,0,12.61-1.82,16.64-4.81v1.17c0,9.1-5,14.49-15.44,14.49a39.37,39.37,0,0,1-19.25-4.53l-4.42,18.08c5.33,4,15.32,6.11,24.94,6.11,23.4,0,37.57-11.54,37.57-37.8V29.66h-18.2Zm-3.64,22.36c0,7.54-5.07,10.66-11.57,10.66-6.76,0-10.66-3.51-10.66-10.4s4-11.18,11.18-11.18c7.8,0,11,4.81,11,9.23v1.69Z"/><path class="cls-1" d="M63,70.1l-8.44-2.47c-0.11.5-.56,2.32-0.71,2.86a35.08,35.08,0,0,1-3.38,8.31l1.09,1.39a24.44,24.44,0,0,0,8.72,6.44,63.73,63.73,0,0,0,18.16,4.94,95.58,95.58,0,0,0,12.7.89c1.48-.23,3.23-0.79,2.65-6.35C91.94,69,90.34,65.06,87.2,58.94a28.15,28.15,0,0,0-4.38-6.47,29.31,29.31,0,0,0-13.07-7.73L48.37,39.88a1.07,1.07,0,0,1,.24-1.94l21.78-9.87a1.07,1.07,0,0,1,1.28,1.47L69.21,38c0.5,0.11,2.32.56,2.86,0.71a34.61,34.61,0,0,1,9,3.81l0.34-.27a24.44,24.44,0,0,0,6.44-8.72,63.73,63.73,0,0,0,4.94-18.16,95.6,95.6,0,0,0,.89-12.7C93.48,1.16,92.91-.58,87.36,0,70.2,1.8,66.3,3.4,60.17,6.54a28.15,28.15,0,0,0-6.47,4.38A29.31,29.31,0,0,0,46,24L41.12,45.37a1.07,1.07,0,0,1-1.94-.24L29.3,23.35a1.07,1.07,0,0,1,1.47-1.28l8.44,2.47c0.11-.5.56-2.32,0.71-2.86a35,35,0,0,1,3.44-8.41l-0.92-1.17a24.44,24.44,0,0,0-8.72-6.44A63.74,63.74,0,0,0,15.56.7,95.57,95.57,0,0,0,2.86-.2C1.38,0-.37.6,0.21,6.16,2,23.31,3.61,27.21,6.75,33.34a28.14,28.14,0,0,0,4.38,6.47A29.31,29.31,0,0,0,24.2,47.53l21.38,4.87a1.07,1.07,0,0,1-.24,1.94L23.56,64.21a1.07,1.07,0,0,1-1.28-1.47l2.47-8.44c-0.5-.11-2.32-0.56-2.86-0.71a34.5,34.5,0,0,1-9.22-3.94l-0.36.28a24.44,24.44,0,0,0-6.44,8.72A63.73,63.73,0,0,0,.91,76.82,95.61,95.61,0,0,0,0,89.52c0.23,1.48.79,3.23,6.35,2.65,17.15-1.8,21.06-3.4,27.18-6.54A28.14,28.14,0,0,0,40,81.24a29.31,29.31,0,0,0,7.73-13.07l4.87-21.38a1.07,1.07,0,0,1,1.94.24l9.87,21.78A1.07,1.07,0,0,1,63,70.1Z"/></svg>